<?xml version="1.0" standalone="no"?>
<!DOCTYPE svg PUBLIC "-//W3C//DTD SVG 20010904//EN"
 "http://www.w3.org/TR/2001/REC-SVG-20010904/DTD/svg10.dtd">
<svg version="1.0" xmlns="http://www.w3.org/2000/svg"
 width="1024.000000pt" height="434.000000pt" viewBox="0 0 1024.000000 434.000000"
 preserveAspectRatio="xMidYMid meet">

<g transform="translate(0.000000,434.000000) scale(0.100000,-0.100000)"
fill="#000000" stroke="none">
<path d="M1893 3111 c-220 -63 -385 -231 -441 -449 -15 -60 -17 -125 -15 -639
2 -637 0 -621 71 -758 46 -89 162 -208 253 -258 134 -75 154 -77 759 -77 498
0 542 1 612 19 225 58 397 225 452 438 22 86 29 396 18 863 -8 361 -10 389
-31 450 -56 161 -167 292 -306 361 -137 67 -152 69 -765 68 -492 0 -551 -2
-607 -18z m498 -486 c51 -18 235 -121 245 -136 4 -8 1 -8 -12 -1 -23 12 -259
102 -268 102 -8 0 -6 -95 3 -135 5 -22 12 -29 26 -27 11 1 63 9 115 17 52 7
96 12 98 11 4 -4 -123 -51 -177 -66 -35 -9 -47 -9 -66 4 -58 38 -76 246 -21
246 7 0 33 -7 57 -15z m549 -150 c15 -19 34 -226 24 -273 -5 -25 -8 -31 -11
-17 -34 190 -48 255 -53 255 -12 0 -130 -79 -130 -87 1 -5 43 -52 94 -105 51
-54 89 -98 85 -98 -12 0 -200 161 -206 176 -15 41 39 112 112 145 49 23 69 24
85 4z m-745 -157 c-15 -95 -47 -213 -62 -230 -9 -10 -26 -18 -39 -18 -35 0
-131 39 -162 65 -23 20 -25 26 -15 48 6 14 27 37 46 51 60 46 200 126 219 126
18 0 19 -5 13 -42z m324 -4 c38 -31 42 -54 5 -25 -18 14 -41 21 -71 21 -42 0
-44 -1 -41 -27 3 -25 8 -28 43 -31 54 -5 67 -17 63 -66 -3 -38 -1 -41 23 -44
21 -2 28 3 42 35 9 21 19 48 22 60 10 35 33 53 68 53 38 0 50 -7 65 -37 15
-27 18 -100 6 -133 -7 -21 -9 -15 -15 38 -7 68 -28 102 -64 102 -21 0 -45 -17
-45 -31 0 -4 10 -9 23 -11 18 -2 23 -10 25 -46 3 -34 -2 -49 -22 -73 -49 -58
-28 -86 51 -69 107 25 160 -45 89 -116 -29 -29 -41 -34 -77 -33 -43 1 -44 1
-13 10 38 11 96 73 88 94 -9 21 -45 30 -55 13 -5 -8 -17 -26 -28 -39 -17 -22
-22 -23 -60 -13 -70 19 -83 -24 -26 -87 19 -22 35 -47 35 -58 0 -27 -36 -68
-65 -75 -29 -7 -102 21 -124 47 -17 21 -12 21 27 1 18 -9 49 -14 74 -12 39 3
43 6 46 31 3 27 -5 32 -50 28 -27 -3 -58 18 -58 38 0 28 -34 65 -52 58 -9 -3
-24 -28 -33 -56 -17 -53 -37 -71 -77 -71 -58 0 -101 77 -76 137 11 28 11 27
19 -25 4 -29 12 -59 19 -67 16 -20 54 -19 70 1 11 13 10 16 -8 21 -45 11 -37
56 20 121 42 49 34 58 -56 53 -58 -2 -82 1 -101 13 -48 32 -25 100 51 146 50
32 52 19 4 -27 -49 -46 -60 -96 -22 -101 15 -2 22 2 22 13 0 9 14 31 31 48
l32 31 15 -22 c17 -26 54 -29 76 -6 24 24 19 42 -18 66 -41 27 -53 75 -30 119
13 25 20 29 58 29 33 0 52 -7 75 -26z m512 -342 c30 -15 60 -40 69 -56 15 -27
14 -28 -31 -69 -44 -40 -182 -129 -224 -143 -11 -4 7 14 40 39 106 81 169 142
161 155 -11 18 -105 64 -124 60 -11 -2 -28 -40 -54 -118 l-38 -115 5 63 c5 71
31 180 47 200 18 22 92 14 149 -16z m-820 -150 c59 -54 69 -68 69 -97 0 -57
-93 -135 -161 -135 -45 0 -47 5 -55 190 -6 161 6 157 30 -10 9 -63 20 -118 25
-123 14 -14 131 61 131 84 0 4 -39 50 -87 100 -99 105 -71 99 48 -9z m444
-144 c47 -21 75 -113 58 -193 -15 -68 -60 -60 -245 46 -49 28 -87 53 -85 55 2
2 28 -6 58 -19 79 -35 219 -80 226 -73 8 8 -15 137 -27 151 -7 8 -35 5 -97
-11 -156 -41 -183 -25 -36 21 49 15 93 28 98 30 18 6 24 5 50 -7z"/>
<path d="M2113 2306 c-32 -25 -80 -65 -108 -89 l-50 -45 55 -26 c94 -43 99
-42 127 39 39 116 52 165 43 165 -4 0 -34 -20 -67 -44z"/>
<path d="M2464 2085 c-22 -22 -26 -33 -21 -66 7 -51 22 -69 59 -69 62 0 106
81 71 128 -28 38 -75 41 -109 7z"/>
<path d="M6740 2425 l0 -285 40 0 40 0 0 285 0 285 -40 0 -40 0 0 -285z"/>
<path d="M4305 2680 c-74 -11 -123 -55 -135 -121 -17 -92 26 -146 143 -179
134 -39 171 -72 147 -131 -24 -57 -126 -64 -200 -15 -48 32 -48 32 -85 2 l-30
-24 25 -20 c60 -49 112 -67 195 -67 62 0 88 5 115 21 50 29 80 78 80 131 0 88
-46 134 -176 177 -98 32 -133 63 -118 103 5 15 21 33 34 41 35 18 115 10 150
-16 l28 -21 29 21 c15 12 30 23 32 25 6 4 -26 29 -63 49 -36 20 -118 31 -171
24z"/>
<path d="M4755 2541 c-34 -9 -95 -39 -95 -47 0 -3 10 -14 22 -23 20 -17 24
-17 52 -2 39 20 122 20 142 0 8 -9 17 -31 20 -51 l6 -36 -73 -3 c-98 -6 -149
-31 -168 -85 -28 -78 5 -144 81 -164 35 -10 49 -9 97 9 32 12 57 16 59 11 2
-6 24 -10 49 -10 39 0 44 2 37 18 -4 9 -9 84 -12 167 -3 107 -8 155 -19 171
-28 44 -119 64 -198 45z m145 -260 c0 -31 -6 -44 -30 -64 -38 -33 -58 -39 -95
-29 -39 11 -57 46 -42 79 15 35 54 52 115 53 l52 0 0 -39z"/>
<path d="M5285 2538 c-16 -6 -39 -17 -50 -24 -25 -18 -35 -18 -35 1 0 11 -11
15 -40 15 l-40 0 0 -196 0 -195 38 3 37 3 1 125 c1 69 2 132 3 141 1 20 71 59
104 59 57 0 57 1 57 -171 l0 -159 40 0 40 0 0 140 0 139 45 26 c26 16 55 25
72 23 36 -4 40 -24 42 -195 l1 -133 35 0 35 0 0 174 c0 159 -2 175 -20 199
-38 49 -127 42 -187 -14 l-21 -21 -29 31 c-32 36 -80 47 -128 29z"/>
<path d="M6365 2537 c-118 -54 -145 -270 -46 -368 55 -55 146 -63 244 -22 20
9 37 19 37 23 0 3 -10 16 -23 28 l-23 22 -40 -20 c-81 -42 -174 11 -174 99 l0
31 136 0 136 0 -7 53 c-15 110 -58 156 -153 163 -36 3 -68 -1 -87 -9z m130
-69 c15 -14 27 -35 28 -53 l2 -30 -88 -3 c-99 -3 -111 5 -81 57 32 53 95 67
139 29z"/>
<path d="M5803 2370 c4 -116 10 -169 22 -193 29 -62 95 -73 183 -32 41 19 52
21 52 10 0 -11 12 -15 40 -15 l40 0 0 195 0 195 -40 0 -40 0 0 -144 0 -145
-28 -20 c-59 -41 -120 -40 -140 4 -7 16 -12 80 -12 165 l0 140 -42 0 -41 0 6
-160z"/>
<path d="M7390 1720 l0 -290 35 0 35 0 0 290 0 290 -35 0 -35 0 0 -290z"/>
<path d="M8720 1910 l0 -101 -32 17 c-22 11 -48 15 -85 12 -100 -9 -148 -90
-142 -242 4 -72 8 -87 32 -119 15 -20 37 -42 48 -48 32 -17 100 -14 139 6 23
12 35 14 38 6 2 -6 21 -11 43 -11 l39 0 0 290 0 290 -40 0 -40 0 0 -100z m-30
-155 l30 -16 0 -107 0 -108 -39 -22 c-50 -28 -73 -28 -108 2 -25 21 -28 32
-31 99 -7 137 55 200 148 152z"/>
<path d="M4210 1700 l0 -272 128 4 c104 3 134 8 167 25 86 45 117 110 116 243
-1 138 -30 203 -109 242 -40 19 -66 23 -174 26 l-128 4 0 -272z m247 170 c51
-30 66 -63 71 -150 8 -132 -29 -192 -129 -210 -100 -18 -94 -30 -97 188 l-2
192 62 0 c45 0 72 -6 95 -20z"/>
<path d="M4821 1818 c-66 -34 -86 -79 -86 -194 0 -81 3 -95 27 -131 14 -22 43
-48 64 -58 54 -25 149 -23 204 5 l43 22 -25 25 c-25 24 -27 24 -51 8 -36 -23
-103 -22 -136 2 -14 11 -33 39 -41 62 -20 57 -12 61 134 61 l118 0 -4 60 c-7
95 -60 150 -150 157 -41 3 -63 -1 -97 -19z m152 -70 c9 -11 17 -31 17 -44 0
-29 -24 -37 -100 -30 -30 3 -61 5 -68 6 -30 1 13 74 53 91 29 12 77 1 98 -23z"/>
<path d="M5260 1834 c-8 -4 -27 -18 -42 -32 -59 -55 -41 -144 36 -182 23 -11
48 -20 55 -20 17 0 74 -30 83 -44 19 -28 8 -57 -28 -72 -42 -18 -82 -12 -119
18 l-27 21 -25 -25 -25 -25 35 -22 c66 -40 162 -46 225 -12 55 29 67 128 21
177 -12 13 -50 33 -83 44 -75 24 -106 45 -106 69 0 47 90 69 139 35 22 -16 24
-15 48 9 l26 25 -34 18 c-34 17 -151 29 -179 18z"/>
<path d="M5650 1818 c-65 -33 -90 -87 -90 -193 0 -97 24 -147 85 -182 52 -29
142 -31 203 -3 48 22 51 29 22 55 -20 18 -22 18 -49 2 -75 -44 -167 -3 -178
81 l-6 42 133 0 133 0 -6 62 c-9 95 -56 146 -148 154 -44 4 -63 1 -99 -18z
m117 -48 c44 -16 70 -81 37 -94 -27 -10 -152 -7 -159 5 -12 19 18 71 49 85 38
16 37 16 73 4z"/>
<path d="M6178 1817 c-46 -23 -48 -23 -54 -5 -4 15 -13 18 -42 16 l-37 -3 -3
-75 c-2 -41 0 -130 3 -198 l7 -123 37 3 36 3 0 142 c0 77 2 143 5 146 16 15
93 47 114 47 51 0 56 -18 56 -186 l0 -154 41 0 40 0 -3 175 c-3 174 -3 175
-30 201 -38 39 -107 43 -170 11z"/>
<path d="M7000 1829 c-14 -6 -36 -20 -48 -32 -44 -41 -56 -77 -57 -167 0 -71
4 -92 24 -126 40 -70 125 -105 210 -84 82 20 124 76 137 183 12 102 -34 198
-109 226 -35 14 -123 13 -157 0z m147 -80 c32 -31 46 -89 37 -156 -10 -84 -49
-119 -127 -114 -10 1 -32 14 -48 30 -27 28 -29 34 -29 113 1 90 12 122 51 145
32 18 86 9 116 -18z"/>
<path d="M8090 1818 c-65 -33 -85 -78 -85 -194 0 -80 3 -95 25 -127 53 -78
166 -102 268 -57 l46 21 -25 25 c-24 24 -27 24 -55 9 -38 -19 -103 -19 -132 1
-28 19 -52 65 -52 99 l0 25 130 0 130 0 0 53 c0 68 -25 116 -75 144 -53 30
-117 30 -175 1z m153 -69 c10 -13 17 -34 15 -48 -3 -25 -5 -26 -86 -29 -66 -2
-83 0 -88 12 -7 19 23 71 50 85 31 16 88 5 109 -20z"/>
<path d="M9014 1821 c-25 -12 -50 -33 -65 -57 -21 -34 -24 -51 -24 -135 0 -90
2 -98 29 -138 34 -49 68 -69 131 -78 90 -12 172 42 196 130 14 51 6 165 -14
204 -43 83 -159 117 -253 74z m145 -67 c47 -33 65 -134 38 -214 -17 -49 -72
-76 -121 -60 -44 14 -68 51 -73 114 -8 108 28 176 96 176 20 0 47 -7 60 -16z"/>
<path d="M9590 1831 c-19 -4 -45 -14 -58 -22 -21 -12 -24 -12 -33 4 -7 11 -22
17 -44 17 l-35 0 0 -200 0 -200 40 0 40 0 0 138 c0 107 3 142 15 159 16 23 70
43 117 43 21 0 29 6 34 25 4 14 5 27 3 29 -11 10 -48 13 -79 7z"/>
<path d="M6470 1818 c1 -7 34 -96 74 -198 l73 -185 43 0 42 0 64 185 c35 102
64 191 64 198 0 7 -14 12 -34 12 -32 0 -36 -3 -54 -52 -11 -29 -32 -92 -47
-140 -14 -49 -30 -88 -35 -88 -4 0 -15 21 -24 48 -9 26 -33 89 -52 140 l-36
92 -39 0 c-25 0 -39 -5 -39 -12z"/>
<path d="M7570 1825 c0 -2 32 -92 71 -200 l72 -195 41 0 42 0 67 188 c37 103
67 193 67 200 0 7 -14 12 -34 12 -33 0 -35 -2 -59 -72 -14 -40 -35 -103 -47
-140 -12 -38 -25 -68 -30 -68 -6 0 -64 147 -105 268 -4 11 -85 18 -85 7z"/>
</g>
</svg>
